<mxfile host="app.diagrams.net" modified="2024-01-30T12:46:04.684Z" agent="Mozilla/5.0 (X11; Ubuntu; Linux x86_64; rv:122.0) Gecko/20100101 Firefox/122.0" version="23.0.2" etag="UCkmU6mJII-AWtQGG2fF" type="github">
  <diagram name="Page-1" id="F8i0XYkKbsZzf8Jhvdap">
    <mxGraphModel>
      <root>
        <mxCell id="0" />
        <mxCell id="1" parent="0" />
      </root>
    </mxGraphModel>
  </diagram>
</mxfile>
